<svg width="40" height="40" viewBox="0 0 64 64" fill="none" xmlns="http://www.w3.org/2000/svg">
<circle cx="32" cy="32" r="32" fill="#662579"/>
<path fill-rule="evenodd" clip-rule="evenodd" d="M32 24C32.5523 24 33 24.4477 33 25L33 38.5858L37.6929 33.8929C38.0834 33.5024 38.7166 33.5024 39.1071 33.8929C39.4976 34.2834 39.4976 34.9166 39.1071 35.3071L32.7071 41.7071C32.5195 41.8946 32.2652 42 32 42C31.7348 42 31.4804 41.8946 31.2929 41.7071L24.8929 35.3071C24.5023 34.9166 24.5023 34.2834 24.8929 33.8929C25.2834 33.5024 25.9166 33.5024 26.3071 33.8929L31 38.5858L31 25C31 24.4477 31.4477 24 32 24Z" fill="white"/>
</svg>
